<svg width="331" height="317" viewBox="0 0 331 317" fill="none" xmlns="http://www.w3.org/2000/svg">
<path d="M80.6143 0.239417C98.2527 -0.293252 117.616 0.22742 135.374 0.23976L243.296 0.183511C259.753 0.141898 272.421 1.20498 287.629 7.83129C309.074 17.1748 322.734 35.5074 327.984 58.0794C330.277 67.9485 330.26 77.6915 330.305 87.8406L330.281 113.345L330.394 195.371L330.315 226.047C330.277 233.756 330.305 242.783 329.475 250.423C327.672 266.994 320.919 282.303 309.235 294.225C296.142 307.584 280.498 313.921 262.072 315.778C258.23 316.165 254.736 316.541 250.83 316.546L134.173 316.733L102.245 316.738C87.3597 316.8 71.828 317.363 57.3057 313.903C44.0401 310.657 31.8802 303.931 22.08 294.419C18.1223 290.617 14.6026 285.917 11.6869 281.284C2.67466 266.965 0.563936 253.701 0.219998 237.086C0.0859734 225.068 0.0270506 213.05 0.0431952 201.032L0.0442242 136.341L0.0604029 102.604C0.0118662 88.3603 -0.495781 70.9162 2.56772 57.1604C5.17084 45.4718 12.2424 32.2411 20.594 23.6118C37.3303 6.31997 57.109 0.70672 80.6143 0.239417Z" fill="#181D28"/>
<path d="M154.371 80.3774C157.28 81.2738 156.876 83.7699 156.043 86.2365C152.465 96.8323 141.708 101.825 132.54 106.642C142.1 105.582 142.574 105.232 151.409 109.664C156.863 108.34 161.67 107.75 166.698 104.671C168.65 103.469 170.436 102.015 172.01 100.347C173.927 98.2986 177.149 92.6919 179.454 92.1733C179.728 92.2624 180.12 92.3827 180.178 92.7461C182.464 106.821 172.84 116.413 161.373 122.192C162.492 126.803 162.89 132.948 164.949 137.031C167.88 142.842 173.864 144.834 171.486 152.63C168.715 161.713 158.276 162.632 150.277 162.744C141.111 162.872 136.359 158.718 129.136 154.022C128.444 154.364 127.713 154.764 127.033 155.138C122.752 157.493 118.36 159.535 113.934 161.594C115.121 161.882 116.323 162.09 117.527 162.386C123.766 163.92 129.871 166.808 136.113 168.217C130.361 172.782 125.048 178.576 119.837 183.749C111.205 192.15 102.7 200.68 94.3231 209.336C92.0115 211.687 89.7755 214.349 87.4334 216.76C79.4831 224.946 71.0625 233.188 63.3433 241.549C64.774 236.394 66.5983 226.604 66.2442 221.113C66.1338 219.399 63.2847 214.835 62.4284 212.894C59.325 205.928 57.3502 198.512 56.578 190.925C54.3938 194.256 51.8645 197.871 50.2576 201.529C49.0034 204.384 49.1508 208.213 47.5487 210.862C47.2066 211.447 46.2941 212.213 45.5691 212.219C41.6454 212.251 41.1649 204.478 41.0291 202.121C39.6484 178.172 49.1096 152.783 64.9105 134.923C73.2618 125.654 83.1282 117.874 94.0883 111.914C102.22 107.491 102.345 108.117 111.137 107.585C112.734 85.2681 132.262 92.3724 147.168 86.135C149.269 85.2558 152.511 82.0217 154.371 80.3774Z" fill="white"/>
<path d="M129.962 122.019C134.527 121.937 141.624 122.093 143.265 126.923C143.615 127.954 143.845 130.053 143.247 131.006C142.12 130.655 141.046 130.182 140.049 129.596C139.596 129.335 129.7 122.496 129.616 122.393L129.962 122.019Z" fill="#181D28"/>
<rect x="204.616" y="144.006" width="35" height="76" rx="5" fill="white"/>
<rect x="158.616" y="174.006" width="35" height="46" rx="5" fill="white"/>
<rect x="250.616" y="107.006" width="35" height="113" rx="5" fill="white"/>
<path d="M119.939 200.227L143.207 218.141C144 218.751 143.562 220.006 142.557 220.006H100.674C99.7265 220.006 99.258 218.869 99.9368 218.216L118.551 200.302C118.929 199.938 119.522 199.906 119.939 200.227Z" fill="white"/>
<path d="M237.301 77.3485L246.616 82.006C246.616 82.006 234.249 101.006 216.116 118.006C197.982 135.006 179.616 144.609 179.616 144.609V157.006C179.616 157.006 204.116 143.506 222.116 127.506C240.116 111.506 256.116 87.506 256.116 87.506L266.535 94.4525C267.205 94.8989 268.101 94.4117 268.09 93.6069L267.672 62.7147C267.647 60.8178 265.601 59.6395 263.947 60.5696L237.257 75.5824C236.559 75.9755 236.583 76.9899 237.301 77.3485Z" fill="white"/>
</svg>
