<svg width="331" height="317" viewBox="0 0 331 317" fill="none" xmlns="http://www.w3.org/2000/svg">
<path d="M80.6143 0.239417C98.2527 -0.293252 117.616 0.22742 135.374 0.23976L243.296 0.183511C259.753 0.141898 272.421 1.20498 287.629 7.83129C309.074 17.1748 322.734 35.5074 327.984 58.0794C330.277 67.9485 330.26 77.6915 330.305 87.8406L330.281 113.345L330.394 195.371L330.315 226.047C330.277 233.756 330.305 242.783 329.475 250.423C327.672 266.994 320.919 282.303 309.235 294.225C296.142 307.584 280.498 313.921 262.072 315.778C258.23 316.165 254.736 316.541 250.83 316.546L134.173 316.733L102.245 316.738C87.3597 316.8 71.828 317.363 57.3057 313.903C44.0401 310.657 31.8802 303.931 22.08 294.419C18.1223 290.617 14.6026 285.917 11.6869 281.284C2.67466 266.965 0.563936 253.701 0.219998 237.086C0.0859734 225.068 0.0270506 213.05 0.0431952 201.032L0.0442242 136.341L0.0604029 102.604C0.0118662 88.3603 -0.495781 70.9162 2.56772 57.1604C5.17084 45.4718 12.2424 32.2411 20.594 23.6118C37.3303 6.31997 57.109 0.70672 80.6143 0.239417Z" fill="#181D28"/>
<path d="M211.922 43C216.046 44.2736 215.474 47.8201 214.293 51.3248C209.219 66.3797 193.964 73.4738 180.963 80.3184C194.52 78.8111 195.191 78.3143 207.721 84.6111C215.456 82.7307 222.273 81.8925 229.403 77.518C232.171 75.809 234.704 73.7431 236.935 71.3737C239.654 68.4632 244.224 60.4969 247.492 59.7601C247.882 59.8867 248.436 60.0576 248.52 60.5739C251.762 80.5717 238.113 94.2011 221.852 102.411C223.439 108.963 224.002 117.695 226.923 123.496C231.079 131.752 239.565 134.582 236.193 145.659C232.263 158.566 217.459 159.871 206.116 160.03C193.117 160.212 186.379 154.309 176.135 147.638C175.154 148.123 174.117 148.692 173.152 149.223C167.082 152.569 160.854 155.471 154.576 158.396C156.26 158.805 157.965 159.1 159.672 159.521C168.52 161.702 177.178 165.804 186.029 167.806C177.873 174.293 170.337 182.524 162.948 189.875C150.707 201.811 138.645 213.931 126.766 226.23C123.488 229.571 120.317 233.352 116.996 236.778C105.721 248.409 93.7798 260.119 82.833 272C84.8619 264.675 87.4489 250.765 86.9468 242.963C86.7903 240.527 82.7499 234.044 81.5356 231.285C77.1345 221.387 74.3341 210.85 73.2389 200.071C70.1415 204.804 66.5546 209.941 64.2758 215.137C62.4972 219.194 62.7062 224.634 60.4342 228.397C59.9491 229.229 58.6551 230.318 57.627 230.327C52.0627 230.371 51.3812 219.327 51.1887 215.979C49.2307 181.951 62.6479 145.878 85.0554 120.501C96.8986 107.331 110.89 96.2763 126.433 87.8089C137.964 81.5243 138.142 82.4131 150.611 81.6578C152.876 49.9489 180.568 60.043 201.707 51.1806C204.687 49.9314 209.283 45.3363 211.922 43Z" fill="white"/>
<path d="M176.495 102.019C183.017 101.9 193.155 102.126 195.499 109.103C195.999 110.591 196.327 113.623 195.474 115C193.863 114.493 192.329 113.809 190.904 112.963C190.258 112.587 176.121 102.708 176 102.56L176.495 102.019Z" fill="#181D28"/>
<rect x="193" y="185" width="37" height="80" rx="5" fill="white"/>
<rect x="145" y="216" width="36" height="49" rx="5" fill="white"/>
<rect x="241" y="146" width="37" height="119" rx="5" fill="white"/>
</svg>
