<svg width="227" height="229" viewBox="0 0 227 229" fill="none" xmlns="http://www.w3.org/2000/svg">
<path d="M160.922 0C165.046 1.27358 164.474 4.82011 163.293 8.32476C158.219 23.3797 142.964 30.4738 129.963 37.3184C143.52 35.8111 144.191 35.3143 156.721 41.6111C164.456 39.7307 171.273 38.8925 178.403 34.518C181.171 32.809 183.704 30.7431 185.935 28.3737C188.654 25.4632 193.224 17.4969 196.492 16.7601C196.882 16.8867 197.436 17.0576 197.52 17.5739C200.762 37.5717 187.113 51.2011 170.852 59.4114C172.439 65.9629 173.002 74.6948 175.923 80.4958C180.079 88.7524 188.565 91.582 185.193 102.659C181.263 115.566 166.459 116.871 155.116 117.03C142.117 117.212 135.379 111.309 125.135 104.638C124.154 105.123 123.117 105.692 122.152 106.223C116.082 109.569 109.854 112.471 103.576 115.396C105.26 115.805 106.965 116.1 108.672 116.521C117.52 118.702 126.178 122.804 135.029 124.806C126.873 131.293 119.337 139.524 111.948 146.875C99.7074 158.811 87.6454 170.931 75.7663 183.23C72.488 186.571 69.3172 190.352 65.9957 193.778C54.7213 205.409 42.7798 217.119 31.833 229C33.8619 221.675 36.4489 207.765 35.9468 199.963C35.7903 197.527 31.7499 191.044 30.5356 188.285C26.1345 178.387 23.3341 167.85 22.2389 157.071C19.1415 161.804 15.5546 166.941 13.2758 172.137C11.4972 176.194 11.7062 181.634 9.43422 185.397C8.9491 186.229 7.65511 187.318 6.62702 187.327C1.06269 187.371 0.381184 176.327 0.188691 172.979C-1.7693 138.951 11.6479 102.878 34.0554 77.5006C45.8986 64.3314 59.8904 53.2764 75.4333 44.8089C86.9644 38.5243 87.1419 39.4131 99.6107 38.6577C101.876 6.9489 129.568 17.043 150.707 8.1806C153.687 6.93138 158.283 2.33627 160.922 0Z" fill="white"/>
<path d="M125.495 59.0191C132.017 58.9 142.155 59.1261 144.499 66.1027C144.999 67.5913 145.327 70.6228 144.474 72C142.863 71.4932 141.329 70.8093 139.904 69.9631C139.258 69.5868 125.121 59.708 125 59.5597L125.495 59.0191Z" fill="#181D28"/>
<path d="M142 147C142 144.239 144.239 142 147 142H174C176.761 142 179 144.239 179 147V217C179 219.761 176.761 222 174 222H147C144.239 222 142 219.761 142 217V147Z" fill="white"/>
<path d="M94 178C94 175.239 96.2386 173 99 173H125C127.761 173 130 175.239 130 178V217C130 219.761 127.761 222 125 222H99C96.2386 222 94 219.761 94 217V178Z" fill="white"/>
<path d="M190 108C190 105.239 192.239 103 195 103H222C224.761 103 227 105.239 227 108V217C227 219.761 224.761 222 222 222H195C192.239 222 190 219.761 190 217V108Z" fill="white"/>
</svg>
